<?xml version="1.0" encoding="UTF-8" standalone="no"?>
<!-- Created with Inkscape (http://www.inkscape.org/) -->

<svg
   width="297.69043"
   height="45.173309"
   viewBox="0 0 297.69043 45.17331"
   version="1.1"
   id="svg1"
   xmlns="http://www.w3.org/2000/svg"
   xmlns:svg="http://www.w3.org/2000/svg">
  <defs
     id="defs1" />
  <g
     id="layer2"
     style="display:inline"
     transform="translate(-1.0399852,-127.41333)">
    <path
       style="font-size:53.3333px;font-family:'Want Coffee';-inkscape-font-specification:'Want Coffee';text-align:center;text-anchor:middle;fill:#ffffff"
       d="M 1.5199849,135.46666 H 16.346643 v 1.54667 l -15.3066578,24.79998 0.7466663,9.22666 H 23.599972 v -6.82666 H 8.5599807 L 8.5066474,163.94665 23.653305,139.30666 V 128.48 H 1.5199849 Z m 38.7733601,17.59999 -7.253329,-24.21332 -7.146662,0.96 9.119994,30.71998 h 1.12 v 10.4 h 6.773329 v -10.4 H 43.76001 L 54.960003,130.72 47.706674,129.54667 Z m 36.586602,4.05333 c -0.266667,-1.81333 -1.493333,-3.2 -3.359998,-4.31999 3.733331,-2.18667 4.319997,-5.12 4.373331,-5.65333 v -0.0533 c 0.106666,-0.8 1.119999,-8.31999 0.959999,-11.14666 -0.213333,-3.73333 -3.519998,-5.91999 -6.346663,-6.39999 h -0.16 l -16.106657,-1.12 1.066666,43.2533 7.093329,-0.16 -0.373333,-14.34665 2.346665,0.42666 0.16,0.0533 c 1.173333,0.21333 2.773332,0.69333 3.519998,1.11999 0.533333,3.2 2.346665,12.58666 2.453332,13.01333 l 6.933329,-1.17333 c 0,-0.10667 -2.133332,-11.25333 -2.559998,-13.49333 z M 71.333283,136.32 c 0.16,0.0533 0.32,0.10666 0.426667,0.15999 0,1.92 -0.48,6.66667 -0.906666,9.49333 -0.373333,0.64 -2.186666,1.97333 -7.039996,2.34667 l -0.32,-12.53333 z m 18.559996,-7.52 -9.173328,41.70664 7.093329,0.64 1.119999,-4.48 h 9.706661 l 0.906666,5.92 7.199994,-0.53333 -7.46666,-43.67998 z m 0.586666,30.66665 3.946665,-17.81332 2.879998,17.81332 z m 58.933315,-9.70666 -0.10667,-0.0533 -11.62666,-5.97333 c -0.26666,-1.54666 -0.69333,-4.05333 -0.85333,-6.82666 -0.0533,-1.12 0.16,-1.76 0.26667,-1.97333 l 8.05333,-0.26667 1.54666,6.88 7.25333,-1.54667 -2.93333,-12.37332 -15.41332,0.48 c -2.50667,0.53333 -6.45333,2.98666 -6.08,9.11999 0.26667,5.12 1.38666,9.33333 1.44,9.49333 l 0.37333,1.44 14.18666,7.35999 c 0.32,0.21334 1.01333,0.8 1.22667,1.49334 0.16,0.90666 -0.42667,3.73333 -1.17334,6.87999 h -6.71999 l -0.90667,-4.42666 -7.2,1.22666 2.13334,9.92 h 18.34665 l 0.74667,-2.4 c 0.0533,-0.10667 0.69333,-2.34667 1.28,-4.90666 1.06666,-4.90667 0.90666,-6.82667 0.64,-7.84 -0.96,-3.57333 -4.16,-5.49333 -4.48,-5.70666 z m 7.09332,-14.45333 h 9.59999 v 36.37331 h 7.2 v -36.37331 h 9.59999 V 128.16 h -26.39998 z m 45.28,35.67998 c 2.61333,-0.10667 6.34666,-2.02666 6.61333,-7.41333 0.21333,-4.16 0.53333,-33.06664 0.58667,-34.34664 L 201.67991,129.12 c 0,0.32 -0.37333,30.07998 -0.58666,34.07998 0,0.37333 -0.0533,0.64 -0.10667,0.74667 -1.38666,0.21333 -5.44,0.69333 -7.89333,0.58666 -0.10666,-0.53333 -0.16,-1.44 -0.10666,-2.18666 v -0.21334 l -0.64,-33.43998 -7.2,0.10667 0.64,33.01331 c -0.16,1.49334 -0.21333,5.22667 1.86667,7.62667 1.06666,1.22666 2.45333,1.97333 4.10666,2.13333 0.58667,0 1.17333,0 1.86667,0 3.14666,0 7.03999,-0.42667 8.15999,-0.58667 z m 32.80002,-37.17331 c -1.54666,-3.73333 -4.58666,-5.92 -8.58666,-6.02666 l -15.25332,-0.37334 1.01333,44.26664 h 10.23999 0.10667 c 0.21333,0 2.61333,-0.16 5.22666,-0.96 4.16,-1.38666 6.77333,-3.99999 7.41333,-7.51999 1.06667,-5.54666 0.90667,-22.39999 0.85333,-24.31999 0,-0.42666 0,-2.71999 -1.01333,-5.06666 z m -6.82666,28.05332 c -0.37333,1.86666 -4.42667,2.61333 -5.81333,2.61333 h -3.2 l -0.69333,-29.75998 7.57333,0.16 c 1.17333,0.0533 1.76,0.48 2.4,1.59999 0.48,1.12 0.53333,2.34667 0.53333,2.4 v 0.0533 c 0,4.95999 0,18.77332 -0.8,22.93332 z m 10.08001,9.27999 h 7.2 v -41.59997 h -7.2 z m 31.89331,-40.37331 C 268.13327,128.96 265.83993,128 262.85327,128 h -8.90666 l -0.48,0.10667 c -1.6,0.58666 -4.37333,2.77333 -4.96,7.35999 v 0.0533 l -0.8,26.39998 c -0.0533,2.02667 0.0533,8.69333 4.37333,9.54666 0.90667,0.16 2.82667,0.21333 4.90667,0.21333 3.14666,0 6.55999,-0.0533 8.26666,-0.16 0.64,0 2.56,-0.0533 4.26666,-1.65333 1.06667,-1.12 2.34667,-2.98666 2.4,-6.50666 0.16,-5.22666 -0.37333,-25.75999 -0.48,-27.67998 0,-0.8 -0.10667,-2.93334 -1.70667,-4.90667 z m -5.49333,32.05332 c 0,1.01333 -0.16,1.49333 -0.16,1.49333 -0.10666,0.0533 -0.10666,0.0533 -0.16,0.0533 h -0.26666 c -3.09333,0.16 -6.82666,0.21333 -8.48,0.16 -0.0533,-0.74666 -0.10666,-1.81333 -0.10666,-2.56 l 0.53333,-25.33332 c 0.10667,-0.58666 0.32,-1.01333 0.42667,-1.27999 h 5.91999 c 1.17334,0 1.92,0.48 1.97333,0.85333 v 0.21333 c 0,0.21333 0.48,21.38666 0.32,26.39999 z m 29.81335,-13.06666 -0.10667,-0.0533 -11.62666,-5.97333 c -0.26667,-1.54666 -0.69333,-4.05333 -0.85333,-6.82666 -0.0533,-1.12 0.16,-1.76 0.26666,-1.97333 l 8.05333,-0.26667 1.54667,6.88 7.25333,-1.54667 -2.93334,-12.37332 -15.41332,0.48 c -2.50667,0.53333 -6.45333,2.98666 -6.08,9.11999 0.26667,5.12 1.38667,9.33333 1.44,9.49333 l 0.37334,1.44 14.18665,7.35999 c 0.32,0.21334 1.01334,0.8 1.22667,1.49334 0.16,0.90666 -0.42667,3.73333 -1.17333,6.87999 h -6.72 l -0.90666,-4.42666 -7.2,1.22666 2.13333,9.92 h 18.34666 l 0.74666,-2.4 c 0.0533,-0.10667 0.69334,-2.34667 1.28,-4.90666 1.06667,-4.90667 0.90667,-6.82667 0.64,-7.84 -0.96,-3.57333 -4.16,-5.49333 -4.47999,-5.70666 z"
       id="text1"
       aria-label="ZYRA STUDIOS" />
  </g>
</svg>
